<svg width="14" height="14" viewBox="0 0 14 14" fill="none" xmlns="http://www.w3.org/2000/svg">
<g clip-path="url(#clip0)">
<path d="M10.7335 0H3.26689C2.88097 0 2.56689 0.31407 2.56689 0.7C2.56689 1.08593 2.88097 1.4 3.26689 1.4H10.7336C11.1195 1.4 11.4336 1.08593 11.4336 0.7C11.4336 0.31407 11.1195 0 10.7335 0ZM10.7335 0.933324H3.26689C3.13832 0.933324 3.03357 0.828789 3.03357 0.7C3.03357 0.571211 3.13832 0.466676 3.26689 0.466676H10.7336C10.8621 0.466676 10.9669 0.571211 10.9669 0.7C10.9669 0.828789 10.8621 0.933324 10.7335 0.933324Z" fill="black"/>
<path d="M10.7335 12.6H3.26689C2.88097 12.6 2.56689 12.9141 2.56689 13.3C2.56689 13.6859 2.88097 14 3.26689 14H10.7336C11.1195 14 11.4336 13.6859 11.4336 13.3C11.4336 12.9141 11.1195 12.6 10.7335 12.6ZM10.7335 13.5333H3.26689C3.13832 13.5333 3.03357 13.4288 3.03357 13.3C3.03357 13.1712 3.13832 13.0667 3.26689 13.0667H10.7336C10.8621 13.0667 10.9669 13.1712 10.9669 13.3C10.9669 13.4288 10.8621 13.5333 10.7335 13.5333Z" fill="black"/>
<path d="M8.66275 6.13386C9.84761 4.949 10.5 3.37375 10.5 1.69843V1.16668C10.5 1.03764 10.3955 0.933352 10.2667 0.933352H3.73332C3.60454 0.933352 3.5 1.03764 3.5 1.16668V1.69843C3.5 3.374 4.15239 4.949 5.33704 6.13386L5.57154 6.36836C5.73789 6.53472 5.83332 6.76479 5.83332 7C5.83332 7.23521 5.73789 7.46528 5.57175 7.63164L5.33725 7.86614C4.15239 9.051 3.5 10.626 3.5 12.3016V12.8333C3.5 12.9624 3.60454 13.0666 3.73332 13.0666H10.2666C10.3954 13.0666 10.5 12.9624 10.5 12.8333V12.3016C10.5 10.6262 9.84758 9.051 8.66272 7.86614L8.42822 7.63164C8.25951 7.46293 8.16665 7.23871 8.16665 7C8.16665 6.76129 8.25951 6.53707 8.42822 6.36836L8.66275 6.13386ZM8.09829 6.03843C7.84139 6.29511 7.7 6.63647 7.7 7C7.7 7.36354 7.84139 7.70489 8.09829 7.96157L8.33279 8.19607C9.42946 9.29275 10.0333 10.7508 10.0333 12.3016V12.6H3.96668V12.3016C3.96668 10.7506 4.57053 9.29275 5.66696 8.19607L5.90146 7.96157C6.15861 7.70489 6.3 7.36329 6.3 7C6.3 6.63671 6.15861 6.29511 5.90171 6.03843L5.66721 5.80393C4.57054 4.70725 3.96668 3.24915 3.96668 1.69843V1.4H10.0334V1.69843C10.0334 3.24918 9.42949 4.70725 8.33282 5.80393L8.09829 6.03843Z" fill="black"/>
<path d="M8.97165 3.93097C8.94808 3.87171 8.86783 3.73333 8.63308 3.73333C7.42069 3.73333 6.88051 3.47361 6.6663 3.31869C6.39912 3.12526 6.05637 3.07461 5.74859 3.18358C5.45483 3.2874 5.23969 3.5184 5.15873 3.81708C5.13773 3.89479 5.13398 3.94518 5.13398 3.94518C5.13048 3.99115 5.14052 4.04086 5.16316 4.08122C5.3818 4.46879 5.63402 4.87758 5.99709 5.24065L6.23134 5.47515C6.57645 5.81979 6.76638 6.27851 6.76638 6.76665C6.76638 6.89568 6.87091 6.99997 6.9997 6.99997C7.12849 6.99997 7.23303 6.89568 7.23303 6.76665C7.23303 6.27875 7.42296 5.82001 7.76781 5.47515L8.00256 5.2404C8.0602 5.18301 8.13531 5.11208 8.21792 5.03461C8.82115 4.4674 9.07479 4.19136 8.97165 3.93097ZM7.89786 4.69468C7.81154 4.77611 7.73265 4.85032 7.67247 4.9105L7.43772 5.14525C7.25643 5.32632 7.10943 5.53257 6.99951 5.75611C6.88962 5.53257 6.74261 5.32632 6.5613 5.14525L6.32702 4.91075C6.04048 4.62399 5.83073 4.30828 5.61255 3.92771C5.67019 3.73289 5.81952 3.65354 5.90423 3.62343C6.06709 3.56579 6.2498 3.59311 6.39259 3.69671C6.68984 3.91185 7.27598 4.16547 8.3988 4.19675C8.25462 4.35914 8.02829 4.57218 7.89786 4.69468Z" fill="black"/>
<path d="M9.5506 11.8818C9.49203 11.1253 9.1887 10.8113 8.83777 10.4473C8.79041 10.398 8.74095 10.3469 8.69031 10.2928C8.39724 9.97965 7.98331 9.8 7.5542 9.8H6.44563C6.01677 9.8 5.6026 9.97968 5.30953 10.2928C5.25888 10.3469 5.20967 10.3978 5.16228 10.447C4.8111 10.811 4.50778 11.1253 4.44946 11.882C4.44431 11.9469 4.46671 12.0108 4.51081 12.0587C4.55514 12.1063 4.61699 12.1334 4.68207 12.1334H9.31793C9.38279 12.1334 9.44486 12.1063 9.48918 12.0585C9.53332 12.0106 9.55549 11.9464 9.5506 11.8818ZM4.94785 11.6667C5.02696 11.2593 5.21549 11.0642 5.49828 10.7711C5.54728 10.7203 5.59814 10.6673 5.65042 10.6115C5.85553 10.3922 6.14532 10.2667 6.44563 10.2667H7.5542C7.85474 10.2667 8.14453 10.3924 8.34963 10.6113C8.40213 10.6678 8.45299 10.7203 8.50224 10.7714C8.78481 11.0645 8.9731 11.2595 9.05245 11.6667H4.94785Z" fill="black"/>
<path d="M6.99309 7.46667C6.8643 7.46667 6.75977 7.57096 6.75977 7.7V7.93332C6.75977 8.06236 6.8643 8.16665 6.99309 8.16665C7.12188 8.16665 7.22642 8.06236 7.22642 7.93332V7.7C7.22642 7.57096 7.12188 7.46667 6.99309 7.46667Z" fill="#333333"/>
<path d="M6.99309 8.63332C6.8643 8.63332 6.75977 8.73761 6.75977 8.86665V9.09997C6.75977 9.22901 6.8643 9.3333 6.99309 9.3333C7.12188 9.3333 7.22642 9.22901 7.22642 9.09997V8.86665C7.22642 8.73764 7.12188 8.63332 6.99309 8.63332Z" fill="black"/>
</g>
<defs>
<clipPath id="clip0">
<rect width="14" height="14" fill="white"/>
</clipPath>
</defs>
</svg>
