<svg width="12" height="13" viewBox="0 0 12 13" fill="none" xmlns="http://www.w3.org/2000/svg">
<path fill-rule="evenodd" clip-rule="evenodd" d="M4.56746 0C7.08035 0 9.11746 2.0371 9.11746 4.55C9.11746 7.0629 7.08035 9.1 4.56746 9.1C2.05456 9.1 0.0174561 7.0629 0.0174561 4.55C0.0174561 2.0371 2.05456 0 4.56746 0ZM5.21764 11.0179V11.7H6.51764V13H2.61764V11.7H3.91764V11.0178C2.4312 10.8698 1.05587 10.2175 0 9.17457L0.91356 8.24969C1.88092 9.2052 3.18041 9.74999 4.56764 9.74999C7.43952 9.74999 9.76764 7.42187 9.76764 4.54999C9.76764 3.1848 9.24014 1.90432 8.3115 0.941178L9.24735 0.0388546C10.4073 1.24192 11.0676 2.84482 11.0676 4.54999C11.0676 7.92047 8.5023 10.6918 5.21764 11.0179ZM1.31782 4.55C1.31782 2.75508 2.77289 1.3 4.56782 1.3C6.36274 1.3 7.81782 2.75508 7.81782 4.55C7.81782 6.34493 6.36274 7.8 4.56782 7.8C2.77289 7.8 1.31782 6.34493 1.31782 4.55Z" fill="#333333"/>
<path fill-rule="evenodd" clip-rule="evenodd" d="M4.56746 0C7.08035 0 9.11746 2.0371 9.11746 4.55C9.11746 7.0629 7.08035 9.1 4.56746 9.1C2.05456 9.1 0.0174561 7.0629 0.0174561 4.55C0.0174561 2.0371 2.05456 0 4.56746 0ZM5.21764 11.0179V11.7H6.51764V13H2.61764V11.7H3.91764V11.0178C2.4312 10.8698 1.05587 10.2175 0 9.17457L0.91356 8.24969C1.88092 9.2052 3.18041 9.74999 4.56764 9.74999C7.43952 9.74999 9.76764 7.42187 9.76764 4.54999C9.76764 3.1848 9.24014 1.90432 8.3115 0.941178L9.24735 0.0388546C10.4073 1.24192 11.0676 2.84482 11.0676 4.54999C11.0676 7.92047 8.5023 10.6918 5.21764 11.0179ZM1.31782 4.55C1.31782 2.75508 2.77289 1.3 4.56782 1.3C6.36274 1.3 7.81782 2.75508 7.81782 4.55C7.81782 6.34493 6.36274 7.8 4.56782 7.8C2.77289 7.8 1.31782 6.34493 1.31782 4.55Z" fill="#333333"/>
<path fill-rule="evenodd" clip-rule="evenodd" d="M4.56746 0C7.08035 0 9.11746 2.0371 9.11746 4.55C9.11746 7.0629 7.08035 9.1 4.56746 9.1C2.05456 9.1 0.0174561 7.0629 0.0174561 4.55C0.0174561 2.0371 2.05456 0 4.56746 0ZM5.21764 11.0179V11.7H6.51764V13H2.61764V11.7H3.91764V11.0178C2.4312 10.8698 1.05587 10.2175 0 9.17457L0.91356 8.24969C1.88092 9.2052 3.18041 9.74999 4.56764 9.74999C7.43952 9.74999 9.76764 7.42187 9.76764 4.54999C9.76764 3.1848 9.24014 1.90432 8.3115 0.941178L9.24735 0.0388546C10.4073 1.24192 11.0676 2.84482 11.0676 4.54999C11.0676 7.92047 8.5023 10.6918 5.21764 11.0179ZM1.31782 4.55C1.31782 2.75508 2.77289 1.3 4.56782 1.3C6.36274 1.3 7.81782 2.75508 7.81782 4.55C7.81782 6.34493 6.36274 7.8 4.56782 7.8C2.77289 7.8 1.31782 6.34493 1.31782 4.55Z" fill="#333333"/>
</svg>
