<svg width="15" height="15" viewBox="0 0 15 15" fill="none" xmlns="http://www.w3.org/2000/svg">
<path d="M8.71514 13.3812C8.66139 13.3812 8.60984 13.3598 8.57183 13.3218L2.44859 7.19857C2.42597 7.17598 2.40902 7.14835 2.39912 7.11794C2.38922 7.08754 2.38665 7.05523 2.39163 7.02364L3.09825 2.54899C3.10493 2.50666 3.12485 2.46753 3.15515 2.43723C3.18545 2.40693 3.22457 2.38701 3.2669 2.38034L7.74136 1.67372C7.77294 1.66874 7.80526 1.67131 7.83566 1.68121C7.86606 1.69111 7.89369 1.70806 7.91629 1.73068L14.0395 7.85391C14.0775 7.89192 14.0989 7.94347 14.0989 7.99722C14.0989 8.05097 14.0775 8.10252 14.0395 8.14053L8.85825 13.3218C8.8203 13.3598 8.76883 13.3811 8.71514 13.3812ZM2.80818 6.98472L8.71514 12.8919L13.6096 7.99722L7.70285 2.09047L3.47568 2.75777L2.80818 6.98472Z" fill="black"/>
<path d="M5.18205 5.49953C4.94266 5.49936 4.71073 5.41621 4.52577 5.26422C4.34082 5.11224 4.21428 4.90083 4.16772 4.66601C4.12115 4.43119 4.15744 4.18749 4.27041 3.97643C4.38337 3.76537 4.56602 3.6 4.78723 3.5085C5.00845 3.417 5.25454 3.40503 5.48359 3.47463C5.71264 3.54423 5.91048 3.69109 6.04339 3.89019C6.17631 4.08929 6.23608 4.32832 6.21252 4.56655C6.18897 4.80478 6.08354 5.02747 5.91421 5.19669C5.81814 5.2929 5.70399 5.36919 5.57835 5.42116C5.4527 5.47313 5.31802 5.49976 5.18205 5.49953ZM5.18205 3.83473C5.03632 3.8348 4.89512 3.8854 4.78251 3.9779C4.6699 4.0704 4.59283 4.19908 4.56445 4.34202C4.53606 4.48496 4.55811 4.63332 4.62683 4.76182C4.69556 4.89033 4.80671 4.99104 4.94135 5.0468C5.07599 5.10255 5.2258 5.1099 5.36526 5.0676C5.50472 5.0253 5.62519 4.93596 5.70617 4.81479C5.78715 4.69363 5.82361 4.54814 5.80936 4.40311C5.7951 4.25808 5.73101 4.12247 5.628 4.01939C5.5696 3.96059 5.50011 3.91397 5.42356 3.88224C5.34701 3.8505 5.26492 3.83429 5.18205 3.83453V3.83473Z" fill="black"/>
<path d="M1.17722 7.18033L0.920401 6.62939C0.906875 6.60042 0.900393 6.56866 0.901485 6.53671C0.902578 6.50476 0.911212 6.47352 0.926685 6.44554L3.12175 2.4825L3.47648 2.67892L1.33128 6.55155L1.54472 7.00885L1.17722 7.18033Z" fill="black"/>
<path d="M4.76368 14.5946C4.72511 14.5946 4.68734 14.5836 4.65482 14.5629C4.62229 14.5421 4.59634 14.5126 4.58003 14.4776L1.54395 7.96622L1.91145 7.79473L4.86178 14.1225L8.2003 12.5657L8.37178 12.9324L4.84962 14.5743C4.82281 14.5873 4.79347 14.5942 4.76368 14.5946Z" fill="black"/>
<path d="M4.68747 4.84459C4.56236 4.84345 4.43779 4.82815 4.31612 4.79899L4.40673 4.40392C4.57376 4.44203 4.87801 4.48236 5.03916 4.32142C5.19707 4.16351 5.19646 3.83311 5.03713 3.41514C4.80276 2.86096 4.45791 2.36037 4.02362 1.94392C3.02389 0.944191 1.96821 0.606083 1.64612 0.928177C1.32402 1.25027 1.66213 2.30655 2.66186 3.30568C2.72943 3.37243 2.797 3.43676 2.86457 3.49865L2.59254 3.79926C2.51943 3.73304 2.447 3.66405 2.37524 3.5923C1.24436 2.46182 0.80774 1.19311 1.35929 0.641556C1.91085 0.0900021 3.17957 0.526623 4.31024 1.6573C4.78493 2.11416 5.16122 2.66324 5.41599 3.27081C5.63896 3.85318 5.60612 4.32811 5.32599 4.60865C5.24108 4.68916 5.1407 4.75158 5.03094 4.79214C4.92118 4.8327 4.80433 4.85054 4.68747 4.84459Z" fill="black"/>
</svg>
